<svg width="101" height="18" viewBox="0 0 101 18" fill="none" xmlns="http://www.w3.org/2000/svg">
    <path d="M83.7309 1.81265C83.5975 1.05256 82.7207 0.45879 82.0556 0.673295C81.4376 0.824069 81.0909 1.57017 81.2839 2.18104C81.8517 3.73697 84.043 3.20382 83.7371 1.83908L83.7309 1.81265Z" fill="#191919"/>
    <path d="M23.634 15.3163C23.0458 16.228 22.0199 16.7674 20.9282 16.7627C19.8678 16.758 18.2302 16.786 17.6138 16.7448C16.9683 16.6982 16.3581 16.5598 15.7762 16.2847C14.7213 15.792 14.0742 14.7583 13.4413 13.7697C12.7221 12.7679 11.5543 10.2102 10.0477 10.7294C8.47436 11.5159 7.61085 16.7642 4.95757 16.7642C1.29413 16.6772 -0.538773 16.7549 1.10903 12.5464C1.95215 10.1838 2.84782 7.72243 3.72309 5.34501C4.0125 4.5787 4.19681 3.94529 4.63052 3.28934C5.83755 1.5803 8.2273 1.98056 10.0618 1.93392C11.4382 1.93004 12.7535 2.33962 13.6633 3.40203C14.3378 4.15047 14.835 5.0318 15.3832 5.86883C15.904 6.67478 16.602 7.80792 17.5973 7.85533C18.5996 7.87942 19.2012 6.73151 19.5227 5.8665C19.8341 5.10719 20.0561 4.32922 20.5204 3.65229C21.5721 2.08548 22.3784 1.9246 25.3846 1.9246C27.6308 1.9246 28.3029 3.00411 27.7343 4.92222C27.6331 5.25252 25.6999 12.1159 23.6332 15.3163H23.634Z" fill="#191919"/>
    <path d="M66.6577 16.733C65.2185 16.6358 63.1511 16.7928 62.5848 15.1833C62.1848 14.2327 62.6523 12.3551 61.3299 12.0714C59.3943 11.9393 57.9057 16.5068 54.8791 16.7641C53.9027 16.7641 53.2109 16.7524 52.3105 16.7641C50.6886 16.7641 49.8573 16.4221 48.9945 15.6659C48.2698 15.0309 48.2612 13.6126 48.084 12.5905C48.022 12.167 47.9671 11.7558 47.9161 11.3509C47.8651 10.946 47.8181 10.5481 47.7718 10.1517C47.7546 7.38416 46.5946 1.92441 49.709 1.92441C51.0839 1.92441 53.6736 1.89643 54.8673 3.75469C54.996 4.02593 55.0469 4.40053 55.0767 4.81322C55.1654 6.05206 55.0611 7.63364 56.2838 7.77664C57.421 7.75643 58.3622 6.45697 59.0994 5.66502C59.9253 4.72928 60.7182 3.63889 61.8891 3.11351C62.4648 2.85315 63.0915 2.7288 63.7205 2.6674C64.6436 2.60212 65.6138 2.52828 66.5385 2.67906C67.918 2.93398 68.3494 3.8122 68.4255 5.03083C68.489 5.7031 68.5157 6.4321 68.7313 7.08727C69.0192 8.04943 69.8027 8.25073 70.5282 7.60255C71.3038 6.87666 71.7266 5.91527 72.285 5.0013C72.7807 4.15805 73.2269 3.37309 73.9359 2.83139C75.2308 1.85679 76.9421 1.90886 78.5107 1.93063C79.9217 1.98425 80.6323 2.68839 79.9311 4.04613C79.4229 4.95622 78.7515 5.79481 78.1829 6.66992C76.5178 9.21522 74.8332 11.8095 72.8685 14.0905C70.9886 16.4571 69.7564 16.8876 66.6922 16.7353H66.6639L66.6616 16.7314L66.6577 16.733Z" fill="#191919"/>
    <path d="M100.32 14.5524C101.069 16.7619 99.3464 16.7713 97.6923 16.6904C96.8194 16.657 95.9794 16.6943 95.108 16.5801C93.6751 16.3912 92.4054 15.0894 90.9717 14.7933C89.7309 14.5392 88.2078 14.6394 86.9216 14.6472C83.6777 14.6604 83.593 16.8226 80.2801 16.7596C79.6833 16.7713 79.0668 16.7612 78.4653 16.7581C77.9288 16.7511 77.3241 16.7511 76.8183 16.5956C75.0504 15.9443 76.6488 14.2081 77.132 13.5327C79.2668 10.7154 81.5303 7.81961 83.6471 5.02407C85.2926 2.78421 85.7608 1.95961 89.0595 1.94251C90.5505 1.98759 92.3803 1.63785 93.8155 2.76711C94.5308 3.34845 95.0273 4.30361 95.4578 5.12199C96.0178 6.21083 96.5276 7.19475 97.1143 8.31157C97.788 9.59471 98.4703 10.9361 99.1307 12.1921C99.5315 12.9646 100.016 13.7449 100.311 14.5291L100.32 14.5547L100.319 14.5532L100.32 14.5524ZM90.3105 9.95067C90.1944 9.18902 89.3231 8.57582 88.6454 8.774C88.0172 8.90923 87.6486 9.64601 87.829 10.2608C88.3639 11.8268 90.5928 11.3473 90.316 9.97787L90.3105 9.95144V9.95067Z" fill="#191919"/>
    <path d="M46.9993 7.25134L46.9884 7.20704C46.6017 5.64567 45.5476 4.18921 44.0967 3.21229C40.0379 0.499899 34.5737 1.64081 30.9628 3.97238C28.4037 5.56484 26.8312 7.96169 26.7567 10.385C26.7127 11.8041 27.1755 13.8613 29.6264 15.6007C31.3173 16.7851 33.5212 17.3711 35.8176 17.3711C38.3713 17.3711 41.041 16.6468 43.2496 15.2136C46.2786 13.2489 47.6448 10.3469 46.9993 7.25212V7.25134ZM39.6905 11.4194C36.6874 14.6813 31.8342 11.1489 33.9957 8.09303L34.0381 8.03397C35.1494 6.29384 37.9235 5.71872 39.3423 6.92026C40.7108 7.91739 40.7963 10.1083 39.6905 11.4194Z" fill="#191919"/>
</svg>
